<?xml version="1.0" encoding="UTF-8" standalone="no"?>
<svg
   xmlns:dc="http://purl.org/dc/elements/1.1/"
   xmlns:cc="http://creativecommons.org/ns#"
   xmlns:rdf="http://www.w3.org/1999/02/22-rdf-syntax-ns#"
   xmlns:svg="http://www.w3.org/2000/svg"
   xmlns="http://www.w3.org/2000/svg"
   id="svg36"
   xml:space="preserve"
   viewBox="0 0 550 445"
   height="445"
   width="550"
   version="1.1"><metadata
     id="metadata40"><rdf:RDF><cc:Work
         rdf:about=""><dc:format>image/svg+xml</dc:format><dc:type
           rdf:resource="http://purl.org/dc/dcmitype/StillImage" /></cc:Work></rdf:RDF></metadata><defs
     id="defs4"><style
       id="style2"
       type="text/css">@import url(&quot;https://fonts.googleapis.com/css2?family=Cinzel+Decorative:wght@400&quot;);</style></defs><defs
     id="defs6" /><g
     id="background"
     transform="matrix(1 0 0 1 275.5 223)"><linearGradient
       y2="445"
       x2="0"
       y1="0"
       x1="0"
       gradientTransform="matrix(1 0 0 1 -275 -222.5)"
       gradientUnits="userSpaceOnUse"
       id="SVGID_8"><stop
         id="stop8"
         style="stop-color:rgb(0,0,0);stop-opacity: 1"
         offset="0%" /></linearGradient><rect
       id="rect11"
       height="445"
       width="550"
       ry="0"
       rx="0"
       y="-222.5"
       x="-275"
       style="stroke: none; stroke-width: 1; stroke-dasharray: none; stroke-linecap: butt; stroke-dashoffset: 0; stroke-linejoin: miter; stroke-miterlimit: 4; fill: url(#SVGID_8); fill-rule: nonzero; opacity: 1;" /></g><g
     id="g20"
     transform="matrix(1 0 0 1 275.5 223)"><linearGradient
       y2="445"
       x2="0"
       y1="0"
       x1="0"
       gradientTransform="matrix(1 0 0 1 -275 -222.5)"
       gradientUnits="userSpaceOnUse"
       id="linearGradient16"><stop
         id="stop14"
         style="stop-color:rgb(0,0,0);stop-opacity: 1"
         offset="0%" /></linearGradient><rect
       id="rect18"
       height="445"
       width="550"
       ry="0"
       rx="0"
       y="-222.5"
       x="-275"
       style="stroke: none; stroke-width: 1; stroke-dasharray: none; stroke-linecap: butt; stroke-dashoffset: 0; stroke-linejoin: miter; stroke-miterlimit: 4; fill: url(#SVGID_8); fill-rule: nonzero; opacity: 1;" /></g><g
     id="icon"
     transform="matrix(0.23 0 0 0.23 275 164.38)"><linearGradient
       y2="512"
       x2="0"
       y1="0"
       x1="0"
       gradientTransform="matrix(1 0 0 1 0 0)"
       gradientUnits="userSpaceOnUse"
       id="SVGID_5"><stop
         id="stop22"
         style="stop-color:rgb(223,177,144);stop-opacity: 1"
         offset="0%" /></linearGradient><path
       id="path25"
       stroke-linecap="round"
       d="M 510.395 152.744 L 465.95 48.599 C 453.351 19.076 424.469 0 392.37 0 H 119.63 C 87.531 0 58.65 19.076 46.05 48.599 L 1.605 152.744 C 0.546 155.226 0 157.896 0 160.594 v 26 c 0 27.34 16.469 50.893 40 61.298 V 432 c 0 44.112 35.888 80 80 80 h 272 c 44.112 0 80 -35.888 80 -80 c 0 -11.046 -8.954 -20 -20 -20 c -11.046 0 -20 8.954 -20 20 c 0 22.056 -17.944 40 -40 40 H 120 c -22.056 0 -40 -17.944 -40 -40 V 252.318 c 13.101 -2.587 24.839 -9.002 34 -18.032 c 1.892 1.865 3.899 3.612 6 5.243 V 369 c 0 11.046 8.954 20 20 20 h 232 c 11.046 0 20 -8.954 20 -20 V 239.529 c 2.101 -1.631 4.108 -3.378 6 -5.243 c 9.161 9.03 20.899 15.445 34 18.032 V 332 c 0 11.046 8.954 20 20 20 c 11.046 0 20 -8.954 20 -20 v -84.107 c 23.531 -10.406 40 -33.958 40 -61.298 v -26 C 512 157.896 511.454 155.226 510.395 152.744 z M 94 186.594 c 0 14.888 -12.112 27 -27 27 s -27 -12.112 -27 -27 V 180 h 54 V 186.594 z M 134 186.594 V 180 h 54 v 6.594 c 0 14.888 -12.112 27 -27 27 S 134 201.482 134 186.594 z M 352 349 H 160 v -95.431 c 0.334 0.005 0.665 0.025 1 0.025 c 18.445 0 35.173 -7.494 47.3 -19.595 c 12.284 12.106 29.131 19.595 47.7 19.595 c 18.569 0 35.416 -7.489 47.7 -19.595 c 12.128 12.101 28.855 19.595 47.3 19.595 c 0.335 0 0.666 -0.021 1 -0.025 V 349 z M 228 185.594 V 180 h 56 v 5.594 c 0 15.439 -12.561 28 -28 28 C 240.561 213.594 228 201.033 228 185.594 z M 378 186.594 c 0 14.888 -12.112 27 -27 27 s -27 -12.112 -27 -27 V 180 h 54 V 186.594 z M 50.534 140 L 82.84 64.299 C 89.14 49.538 103.581 40 119.63 40 h 272.74 c 16.049 0 30.49 9.538 36.79 24.299 L 461.466 140 H 50.534 z M 472 186.594 c 0 14.888 -12.112 27 -27 27 s -27 -12.112 -27 -27 V 180 h 54 V 186.594 z"
       transform=" translate(-256, -256)"
       style="stroke: none; stroke-width: 1; stroke-dasharray: none; stroke-linecap: butt; stroke-dashoffset: 0; stroke-linejoin: miter; stroke-miterlimit: 4; fill: url(#SVGID_5); fill-rule: nonzero; opacity: 1;" /></g><g
     id="logo-name"
     style=""
     transform="matrix(1.95 0 0 1.95 275.98 281.99)"><linearGradient
       y2="33.89999999999999"
       x2="0"
       y1="0"
       x1="0"
       gradientTransform="matrix(1 0 0 1 -40.46 -16.95)"
       gradientUnits="userSpaceOnUse"
       id="SVGID_6"><stop
         id="stop28"
         style="stop-color:rgb(255,255,255);stop-opacity: 1"
         offset="0%" /></linearGradient><text
       id="text33"
       style="stroke: none; stroke-width: 1; stroke-dasharray: none; stroke-linecap: butt; stroke-dashoffset: 0; stroke-linejoin: miter; stroke-miterlimit: 4; fill: url(#SVGID_6); fill-rule: nonzero; opacity: 1; white-space: pre;"
       font-weight="normal"
       font-style="normal"
       font-size="30"
       font-family="Cinzel Decorative"
       xml:space="preserve"><tspan
         id="tspan31"
         y="9.42"
         x="-40.46">TADA</tspan></text>
</g></svg>